<?xml version="1.0" encoding="UTF-8" standalone="no"?>
<!DOCTYPE svg PUBLIC "-//W3C//DTD SVG 1.1//EN"
 "http://www.w3.org/Graphics/SVG/1.1/DTD/svg11.dtd">
<!-- Generated by graphviz version 2.40.1 (0)
 -->
<!-- Title: %3 Pages: 1 -->
<svg width="422pt" height="440pt"
 viewBox="0.00 0.00 422.00 440.00" xmlns="http://www.w3.org/2000/svg" xmlns:xlink="http://www.w3.org/1999/xlink">
<g id="graph0" class="graph" transform="scale(1 1) rotate(0) translate(4 436)">
<title>%3</title>
<polygon fill="#ffffff" stroke="transparent" points="-4,4 -4,-436 418,-436 418,4 -4,4"/>
<!-- A1 -->
<g id="node1" class="node">
<title>A1</title>
<polygon fill="#c0c0c0" stroke="#000000" points="54,-396 0,-396 0,-360 54,-360 54,-396"/>
<text text-anchor="middle" x="27" y="-374.3" font-family="Times,serif" font-size="14.00" fill="#000000">31</text>
</g>
<!-- B1 -->
<g id="node7" class="node">
<title>B1</title>
<polygon fill="#ffffff" stroke="#000000" points="54,-324 0,-324 0,-288 54,-288 54,-324"/>
<text text-anchor="middle" x="27" y="-302.3" font-family="Times,serif" font-size="14.00" fill="#000000">31</text>
</g>
<!-- A1&#45;&gt;B1 -->
<!-- A2 -->
<g id="node2" class="node">
<title>A2</title>
<polygon fill="#000000" stroke="#000000" points="126,-396 72,-396 72,-360 126,-360 126,-396"/>
<text text-anchor="middle" x="99" y="-374.3" font-family="Times,serif" font-size="14.00" fill="#ffffff">41</text>
</g>
<!-- A2&#45;&gt;A2 -->
<g id="edge1" class="edge">
<title>A2:n&#45;&gt;A2:n</title>
<path fill="none" stroke="#000000" d="M99,-396C108,-408 108,-432 99,-432 91.9688,-432 90.4307,-417.3516 94.3857,-405.2208"/>
<polygon fill="#000000" stroke="#000000" points="97.6548,-406.5091 99,-396 91.3949,-403.3765 97.6548,-406.5091"/>
</g>
<!-- A3 -->
<g id="node3" class="node">
<title>A3</title>
<polygon fill="#ffffff" stroke="#000000" points="198,-396 144,-396 144,-360 198,-360 198,-396"/>
<text text-anchor="middle" x="171" y="-374.3" font-family="Times,serif" font-size="14.00" fill="#000000">59</text>
</g>
<!-- A4 -->
<g id="node4" class="node">
<title>A4</title>
<polygon fill="#ffffff" stroke="#000000" points="270,-396 216,-396 216,-360 270,-360 270,-396"/>
<text text-anchor="middle" x="243" y="-374.3" font-family="Times,serif" font-size="14.00" fill="#000000">26</text>
</g>
<!-- A5 -->
<g id="node5" class="node">
<title>A5</title>
<polygon fill="#ffffff" stroke="#000000" points="342,-396 288,-396 288,-360 342,-360 342,-396"/>
<text text-anchor="middle" x="315" y="-374.3" font-family="Times,serif" font-size="14.00" fill="#000000">41</text>
</g>
<!-- A6 -->
<g id="node6" class="node">
<title>A6</title>
<polygon fill="#ffffff" stroke="#000000" points="414,-396 360,-396 360,-360 414,-360 414,-396"/>
<text text-anchor="middle" x="387" y="-374.3" font-family="Times,serif" font-size="14.00" fill="#000000">58</text>
</g>
<!-- C1 -->
<g id="node13" class="node">
<title>C1</title>
<polygon fill="#c0c0c0" stroke="#000000" points="54,-252 0,-252 0,-216 54,-216 54,-252"/>
<text text-anchor="middle" x="27" y="-230.3" font-family="Times,serif" font-size="14.00" fill="#000000">31</text>
</g>
<!-- B1&#45;&gt;C1 -->
<!-- B2 -->
<g id="node8" class="node">
<title>B2</title>
<polygon fill="#c0c0c0" stroke="#000000" points="126,-324 72,-324 72,-288 126,-288 126,-324"/>
<text text-anchor="middle" x="99" y="-302.3" font-family="Times,serif" font-size="14.00" fill="#000000">41</text>
</g>
<!-- B3 -->
<g id="node9" class="node">
<title>B3</title>
<polygon fill="#000000" stroke="#000000" points="198,-324 144,-324 144,-288 198,-288 198,-324"/>
<text text-anchor="middle" x="171" y="-302.3" font-family="Times,serif" font-size="14.00" fill="#ffffff">59</text>
</g>
<!-- B3&#45;&gt;B3 -->
<g id="edge2" class="edge">
<title>B3:n&#45;&gt;B3:n</title>
<path fill="none" stroke="#000000" d="M171,-324C180,-336 180,-360 171,-360 163.9688,-360 162.4307,-345.3516 166.3857,-333.2208"/>
<polygon fill="#000000" stroke="#000000" points="169.6548,-334.5091 171,-324 163.3949,-331.3765 169.6548,-334.5091"/>
</g>
<!-- B4 -->
<g id="node10" class="node">
<title>B4</title>
<polygon fill="#ffffff" stroke="#000000" points="270,-324 216,-324 216,-288 270,-288 270,-324"/>
<text text-anchor="middle" x="243" y="-302.3" font-family="Times,serif" font-size="14.00" fill="#000000">26</text>
</g>
<!-- B5 -->
<g id="node11" class="node">
<title>B5</title>
<polygon fill="#ffffff" stroke="#000000" points="342,-324 288,-324 288,-288 342,-288 342,-324"/>
<text text-anchor="middle" x="315" y="-302.3" font-family="Times,serif" font-size="14.00" fill="#000000">41</text>
</g>
<!-- B6 -->
<g id="node12" class="node">
<title>B6</title>
<polygon fill="#ffffff" stroke="#000000" points="414,-324 360,-324 360,-288 414,-288 414,-324"/>
<text text-anchor="middle" x="387" y="-302.3" font-family="Times,serif" font-size="14.00" fill="#000000">58</text>
</g>
<!-- C2 -->
<g id="node14" class="node">
<title>C2</title>
<polygon fill="#c0c0c0" stroke="#000000" points="126,-252 72,-252 72,-216 126,-216 126,-252"/>
<text text-anchor="middle" x="99" y="-230.3" font-family="Times,serif" font-size="14.00" fill="#000000">41</text>
</g>
<!-- C1&#45;&gt;C2 -->
<g id="edge3" class="edge">
<title>C1&#45;&gt;C2</title>
<path fill="none" stroke="#c0c0c0" d="M54.2813,-234C56.7377,-234 59.1942,-234 61.6507,-234"/>
<polygon fill="#c0c0c0" stroke="#c0c0c0" points="61.7495,-237.5001 71.7495,-234 61.7495,-230.5001 61.7495,-237.5001"/>
</g>
<!-- D1 -->
<g id="node19" class="node">
<title>D1</title>
<polygon fill="#ffffff" stroke="#000000" points="54,-180 0,-180 0,-144 54,-144 54,-180"/>
<text text-anchor="middle" x="27" y="-158.3" font-family="Times,serif" font-size="14.00" fill="#000000">26</text>
</g>
<!-- C1&#45;&gt;D1 -->
<!-- C3 -->
<g id="node15" class="node">
<title>C3</title>
<polygon fill="#c0c0c0" stroke="#000000" points="198,-252 144,-252 144,-216 198,-216 198,-252"/>
<text text-anchor="middle" x="171" y="-230.3" font-family="Times,serif" font-size="14.00" fill="#000000">59</text>
</g>
<!-- C2&#45;&gt;C3 -->
<g id="edge4" class="edge">
<title>C2&#45;&gt;C3</title>
<path fill="none" stroke="#c0c0c0" d="M126.2813,-234C128.7377,-234 131.1942,-234 133.6507,-234"/>
<polygon fill="#c0c0c0" stroke="#c0c0c0" points="133.7495,-237.5001 143.7495,-234 133.7495,-230.5001 133.7495,-237.5001"/>
</g>
<!-- C4 -->
<g id="node16" class="node">
<title>C4</title>
<polygon fill="#000000" stroke="#000000" points="270,-252 216,-252 216,-216 270,-216 270,-252"/>
<text text-anchor="middle" x="243" y="-230.3" font-family="Times,serif" font-size="14.00" fill="#ffffff">26</text>
</g>
<!-- C3&#45;&gt;C4 -->
<g id="edge5" class="edge">
<title>C3&#45;&gt;C4</title>
<path fill="none" stroke="#c0c0c0" d="M198.2813,-234C200.7377,-234 203.1942,-234 205.6507,-234"/>
<polygon fill="#c0c0c0" stroke="#c0c0c0" points="205.7495,-237.5001 215.7495,-234 205.7495,-230.5001 205.7495,-237.5001"/>
</g>
<!-- C4&#45;&gt;C1 -->
<g id="edge6" class="edge">
<title>C4&#45;&gt;C1</title>
<path fill="none" stroke="#000000" d="M225.9185,-252.2173C218.1538,-259.1981 208.385,-266.3571 198,-270 145.1568,-288.5364 124.8432,-288.5364 72,-270 64.8603,-267.4955 58.0119,-263.3291 51.9057,-258.7013"/>
<polygon fill="#000000" stroke="#000000" points="54.0145,-255.9032 44.0815,-252.2173 49.5479,-261.293 54.0145,-255.9032"/>
</g>
<!-- C5 -->
<g id="node17" class="node">
<title>C5</title>
<polygon fill="#ffffff" stroke="#000000" points="342,-252 288,-252 288,-216 342,-216 342,-252"/>
<text text-anchor="middle" x="315" y="-230.3" font-family="Times,serif" font-size="14.00" fill="#000000">41</text>
</g>
<!-- C6 -->
<g id="node18" class="node">
<title>C6</title>
<polygon fill="#ffffff" stroke="#000000" points="414,-252 360,-252 360,-216 414,-216 414,-252"/>
<text text-anchor="middle" x="387" y="-230.3" font-family="Times,serif" font-size="14.00" fill="#000000">58</text>
</g>
<!-- E1 -->
<g id="node25" class="node">
<title>E1</title>
<polygon fill="#ffffff" stroke="#000000" points="54,-108 0,-108 0,-72 54,-72 54,-108"/>
<text text-anchor="middle" x="27" y="-86.3" font-family="Times,serif" font-size="14.00" fill="#000000">26</text>
</g>
<!-- D1&#45;&gt;E1 -->
<!-- D2 -->
<g id="node20" class="node">
<title>D2</title>
<polygon fill="#ffffff" stroke="#000000" points="126,-180 72,-180 72,-144 126,-144 126,-180"/>
<text text-anchor="middle" x="99" y="-158.3" font-family="Times,serif" font-size="14.00" fill="#000000">31</text>
</g>
<!-- D3 -->
<g id="node21" class="node">
<title>D3</title>
<polygon fill="#c0c0c0" stroke="#000000" points="198,-180 144,-180 144,-144 198,-144 198,-180"/>
<text text-anchor="middle" x="171" y="-158.3" font-family="Times,serif" font-size="14.00" fill="#000000">41</text>
</g>
<!-- D4 -->
<g id="node22" class="node">
<title>D4</title>
<polygon fill="#c0c0c0" stroke="#000000" points="270,-180 216,-180 216,-144 270,-144 270,-180"/>
<text text-anchor="middle" x="243" y="-158.3" font-family="Times,serif" font-size="14.00" fill="#000000">59</text>
</g>
<!-- D5 -->
<g id="node23" class="node">
<title>D5</title>
<polygon fill="#000000" stroke="#000000" points="342,-180 288,-180 288,-144 342,-144 342,-180"/>
<text text-anchor="middle" x="315" y="-158.3" font-family="Times,serif" font-size="14.00" fill="#ffffff">41</text>
</g>
<!-- D4&#45;&gt;D5 -->
<g id="edge7" class="edge">
<title>D4&#45;&gt;D5</title>
<path fill="none" stroke="#c0c0c0" d="M270.2813,-149.2918C272.7377,-148.8456 275.1942,-148.588 277.6507,-148.519"/>
<polygon fill="#c0c0c0" stroke="#c0c0c0" points="277.5101,-152.0184 287.7495,-149.2974 278.0481,-145.0391 277.5101,-152.0184"/>
</g>
<!-- D5&#45;&gt;D4 -->
<g id="edge8" class="edge">
<title>D5&#45;&gt;D4</title>
<path fill="none" stroke="#000000" d="M287.7495,-174.7026C285.293,-175.1503 282.8366,-175.4095 280.3801,-175.4802"/>
<polygon fill="#000000" stroke="#000000" points="280.519,-171.9807 270.2813,-174.7082 279.9854,-178.9603 280.519,-171.9807"/>
</g>
<!-- D6 -->
<g id="node24" class="node">
<title>D6</title>
<polygon fill="#ffffff" stroke="#000000" points="414,-180 360,-180 360,-144 414,-144 414,-180"/>
<text text-anchor="middle" x="387" y="-158.3" font-family="Times,serif" font-size="14.00" fill="#000000">58</text>
</g>
<!-- F1 -->
<g id="node31" class="node">
<title>F1</title>
<polygon fill="#ffffff" stroke="#000000" points="54,-36 0,-36 0,0 54,0 54,-36"/>
<text text-anchor="middle" x="27" y="-14.3" font-family="Times,serif" font-size="14.00" fill="#000000">26</text>
</g>
<!-- E1&#45;&gt;F1 -->
<!-- E2 -->
<g id="node26" class="node">
<title>E2</title>
<polygon fill="#ffffff" stroke="#000000" points="126,-108 72,-108 72,-72 126,-72 126,-108"/>
<text text-anchor="middle" x="99" y="-86.3" font-family="Times,serif" font-size="14.00" fill="#000000">31</text>
</g>
<!-- E3 -->
<g id="node27" class="node">
<title>E3</title>
<polygon fill="#ffffff" stroke="#000000" points="198,-108 144,-108 144,-72 198,-72 198,-108"/>
<text text-anchor="middle" x="171" y="-86.3" font-family="Times,serif" font-size="14.00" fill="#000000">41</text>
</g>
<!-- E4 -->
<g id="node28" class="node">
<title>E4</title>
<polygon fill="#c0c0c0" stroke="#000000" points="270,-108 216,-108 216,-72 270,-72 270,-108"/>
<text text-anchor="middle" x="243" y="-86.3" font-family="Times,serif" font-size="14.00" fill="#000000">41</text>
</g>
<!-- E5 -->
<g id="node29" class="node">
<title>E5</title>
<polygon fill="#c0c0c0" stroke="#000000" points="342,-108 288,-108 288,-72 342,-72 342,-108"/>
<text text-anchor="middle" x="315" y="-86.3" font-family="Times,serif" font-size="14.00" fill="#000000">59</text>
</g>
<!-- E6 -->
<g id="node30" class="node">
<title>E6</title>
<polygon fill="#000000" stroke="#000000" points="414,-108 360,-108 360,-72 414,-72 414,-108"/>
<text text-anchor="middle" x="387" y="-86.3" font-family="Times,serif" font-size="14.00" fill="#ffffff">58</text>
</g>
<!-- E5&#45;&gt;E6 -->
<g id="edge9" class="edge">
<title>E5&#45;&gt;E6</title>
<path fill="none" stroke="#c0c0c0" d="M342.2813,-77.2918C344.7377,-76.8456 347.1942,-76.588 349.6507,-76.519"/>
<polygon fill="#c0c0c0" stroke="#c0c0c0" points="349.5101,-80.0184 359.7495,-77.2974 350.0481,-73.0391 349.5101,-80.0184"/>
</g>
<!-- E6&#45;&gt;E5 -->
<g id="edge10" class="edge">
<title>E6&#45;&gt;E5</title>
<path fill="none" stroke="#000000" d="M359.7495,-102.7026C357.293,-103.1503 354.8366,-103.4095 352.3801,-103.4802"/>
<polygon fill="#000000" stroke="#000000" points="352.519,-99.9807 342.2813,-102.7082 351.9854,-106.9603 352.519,-99.9807"/>
</g>
<!-- F2 -->
<g id="node32" class="node">
<title>F2</title>
<polygon fill="#ffffff" stroke="#000000" points="126,-36 72,-36 72,0 126,0 126,-36"/>
<text text-anchor="middle" x="99" y="-14.3" font-family="Times,serif" font-size="14.00" fill="#000000">31</text>
</g>
<!-- F3 -->
<g id="node33" class="node">
<title>F3</title>
<polygon fill="#ffffff" stroke="#000000" points="198,-36 144,-36 144,0 198,0 198,-36"/>
<text text-anchor="middle" x="171" y="-14.3" font-family="Times,serif" font-size="14.00" fill="#000000">41</text>
</g>
<!-- F4 -->
<g id="node34" class="node">
<title>F4</title>
<polygon fill="#ffffff" stroke="#000000" points="270,-36 216,-36 216,0 270,0 270,-36"/>
<text text-anchor="middle" x="243" y="-14.3" font-family="Times,serif" font-size="14.00" fill="#000000">41</text>
</g>
<!-- F5 -->
<g id="node35" class="node">
<title>F5</title>
<polygon fill="#ffffff" stroke="#000000" points="342,-36 288,-36 288,0 342,0 342,-36"/>
<text text-anchor="middle" x="315" y="-14.3" font-family="Times,serif" font-size="14.00" fill="#000000">58</text>
</g>
<!-- F6 -->
<g id="node36" class="node">
<title>F6</title>
<polygon fill="#ffffff" stroke="#000000" points="414,-36 360,-36 360,0 414,0 414,-36"/>
<text text-anchor="middle" x="387" y="-14.3" font-family="Times,serif" font-size="14.00" fill="#000000">59</text>
</g>
</g>
</svg>
