<?xml version="1.0" encoding="UTF-8" standalone="no"?>
<!DOCTYPE svg PUBLIC "-//W3C//DTD SVG 1.1//EN"
 "http://www.w3.org/Graphics/SVG/1.1/DTD/svg11.dtd">
<!-- Generated by graphviz version 2.40.1 (0)
 -->
<!-- Title: %3 Pages: 1 -->
<svg width="566pt" height="264pt"
 viewBox="0.00 0.00 566.00 264.00" xmlns="http://www.w3.org/2000/svg" xmlns:xlink="http://www.w3.org/1999/xlink">
<g id="graph0" class="graph" transform="scale(1 1) rotate(0) translate(4 260)">
<title>%3</title>
<polygon fill="#ffffff" stroke="transparent" points="-4,4 -4,-260 562,-260 562,4 -4,4"/>
<!-- 03 -->
<g id="node1" class="node">
<title>03</title>
<polygon fill="none" stroke="#000000" points="0,-.5 0,-36.5 54,-36.5 54,-.5 0,-.5"/>
<text text-anchor="middle" x="27" y="-14.8" font-family="Times,serif" font-size="14.00" fill="#000000">03</text>
</g>
<!-- a1 -->
<g id="node9" class="node">
<title>a1</title>
<polygon fill="none" stroke="#000000" points="64,-73.5 64,-109.5 134,-109.5 134,-73.5 64,-73.5"/>
<text text-anchor="middle" x="81.5" y="-87.8" font-family="Times,serif" font-size="14.00" fill="#000000">03</text>
<polyline fill="none" stroke="#000000" points="99,-73.5 99,-109.5 "/>
<text text-anchor="middle" x="116.5" y="-87.8" font-family="Times,serif" font-size="14.00" fill="#000000">41</text>
</g>
<!-- 03&#45;&gt;a1 -->
<g id="edge1" class="edge">
<title>03&#45;&gt;a1</title>
<path fill="none" stroke="#000000" d="M44.7978,-36.5449C53.6248,-45.4946 64.4331,-56.453 74.0693,-66.2231"/>
<polygon fill="#000000" stroke="#000000" points="71.6434,-68.7477 81.1575,-73.4096 76.6272,-63.8322 71.6434,-68.7477"/>
</g>
<!-- 41 -->
<g id="node2" class="node">
<title>41</title>
<polygon fill="none" stroke="#000000" points="72,-.5 72,-36.5 126,-36.5 126,-.5 72,-.5"/>
<text text-anchor="middle" x="99" y="-14.8" font-family="Times,serif" font-size="14.00" fill="#000000">41</text>
</g>
<!-- 41&#45;&gt;a1 -->
<g id="edge2" class="edge">
<title>41&#45;&gt;a1</title>
<path fill="none" stroke="#000000" d="M99,-36.5449C99,-44.6172 99,-54.3236 99,-63.3183"/>
<polygon fill="#000000" stroke="#000000" points="95.5001,-63.4096 99,-73.4096 102.5001,-63.4097 95.5001,-63.4096"/>
</g>
<!-- 52 -->
<g id="node3" class="node">
<title>52</title>
<polygon fill="none" stroke="#000000" points="144,-.5 144,-36.5 198,-36.5 198,-.5 144,-.5"/>
<text text-anchor="middle" x="171" y="-14.8" font-family="Times,serif" font-size="14.00" fill="#000000">52</text>
</g>
<!-- a2 -->
<g id="node10" class="node">
<title>a2</title>
<polygon fill="none" stroke="#000000" points="165,-73.5 165,-109.5 235,-109.5 235,-73.5 165,-73.5"/>
<text text-anchor="middle" x="182.5" y="-87.8" font-family="Times,serif" font-size="14.00" fill="#000000">26</text>
<polyline fill="none" stroke="#000000" points="200,-73.5 200,-109.5 "/>
<text text-anchor="middle" x="217.5" y="-87.8" font-family="Times,serif" font-size="14.00" fill="#000000">52</text>
</g>
<!-- 52&#45;&gt;a2 -->
<g id="edge3" class="edge">
<title>52&#45;&gt;a2</title>
<path fill="none" stroke="#000000" d="M178.1685,-36.5449C181.445,-44.7926 185.3993,-54.7464 189.0371,-63.9038"/>
<polygon fill="#000000" stroke="#000000" points="185.8687,-65.4083 192.8134,-73.4096 192.3741,-62.8239 185.8687,-65.4083"/>
</g>
<!-- 26 -->
<g id="node4" class="node">
<title>26</title>
<polygon fill="none" stroke="#000000" points="216,-.5 216,-36.5 270,-36.5 270,-.5 216,-.5"/>
<text text-anchor="middle" x="243" y="-14.8" font-family="Times,serif" font-size="14.00" fill="#000000">26</text>
</g>
<!-- 26&#45;&gt;a2 -->
<g id="edge4" class="edge">
<title>26&#45;&gt;a2</title>
<path fill="none" stroke="#000000" d="M232.3708,-36.5449C227.3575,-45.0559 221.2741,-55.3835 215.7403,-64.7781"/>
<polygon fill="#000000" stroke="#000000" points="212.7157,-63.0169 210.656,-73.4096 218.7471,-66.5697 212.7157,-63.0169"/>
</g>
<!-- 38 -->
<g id="node5" class="node">
<title>38</title>
<polygon fill="none" stroke="#000000" points="288,-.5 288,-36.5 342,-36.5 342,-.5 288,-.5"/>
<text text-anchor="middle" x="315" y="-14.8" font-family="Times,serif" font-size="14.00" fill="#000000">38</text>
</g>
<!-- a3 -->
<g id="node11" class="node">
<title>a3</title>
<polygon fill="none" stroke="#000000" points="330,-73.5 330,-109.5 400,-109.5 400,-73.5 330,-73.5"/>
<text text-anchor="middle" x="347.5" y="-87.8" font-family="Times,serif" font-size="14.00" fill="#000000">38</text>
<polyline fill="none" stroke="#000000" points="365,-73.5 365,-109.5 "/>
<text text-anchor="middle" x="382.5" y="-87.8" font-family="Times,serif" font-size="14.00" fill="#000000">57</text>
</g>
<!-- 38&#45;&gt;a3 -->
<g id="edge5" class="edge">
<title>38&#45;&gt;a3</title>
<path fill="none" stroke="#000000" d="M327.3596,-36.5449C333.2491,-45.1436 340.4087,-55.5966 346.8961,-65.0684"/>
<polygon fill="#000000" stroke="#000000" points="344.0708,-67.1372 352.6093,-73.4096 349.846,-63.1815 344.0708,-67.1372"/>
</g>
<!-- 57 -->
<g id="node6" class="node">
<title>57</title>
<polygon fill="none" stroke="#000000" points="360,-.5 360,-36.5 414,-36.5 414,-.5 360,-.5"/>
<text text-anchor="middle" x="387" y="-14.8" font-family="Times,serif" font-size="14.00" fill="#000000">57</text>
</g>
<!-- 57&#45;&gt;a3 -->
<g id="edge6" class="edge">
<title>57&#45;&gt;a3</title>
<path fill="none" stroke="#000000" d="M381.5618,-36.5449C379.1026,-44.7049 376.1402,-54.5348 373.4048,-63.6113"/>
<polygon fill="#000000" stroke="#000000" points="369.9863,-62.825 370.4519,-73.4096 376.6886,-64.8449 369.9863,-62.825"/>
</g>
<!-- 09 -->
<g id="node7" class="node">
<title>09</title>
<polygon fill="none" stroke="#000000" points="432,-.5 432,-36.5 486,-36.5 486,-.5 432,-.5"/>
<text text-anchor="middle" x="459" y="-14.8" font-family="Times,serif" font-size="14.00" fill="#000000">09</text>
</g>
<!-- a4 -->
<g id="node12" class="node">
<title>a4</title>
<polygon fill="none" stroke="#000000" points="424,-73.5 424,-109.5 494,-109.5 494,-73.5 424,-73.5"/>
<text text-anchor="middle" x="441.5" y="-87.8" font-family="Times,serif" font-size="14.00" fill="#000000">09</text>
<polyline fill="none" stroke="#000000" points="459,-73.5 459,-109.5 "/>
<text text-anchor="middle" x="476.5" y="-87.8" font-family="Times,serif" font-size="14.00" fill="#000000">49</text>
</g>
<!-- 09&#45;&gt;a4 -->
<g id="edge7" class="edge">
<title>09&#45;&gt;a4</title>
<path fill="none" stroke="#000000" d="M459,-36.5449C459,-44.6172 459,-54.3236 459,-63.3183"/>
<polygon fill="#000000" stroke="#000000" points="455.5001,-63.4096 459,-73.4096 462.5001,-63.4097 455.5001,-63.4096"/>
</g>
<!-- 49 -->
<g id="node8" class="node">
<title>49</title>
<polygon fill="none" stroke="#000000" points="504,-.5 504,-36.5 558,-36.5 558,-.5 504,-.5"/>
<text text-anchor="middle" x="531" y="-14.8" font-family="Times,serif" font-size="14.00" fill="#000000">49</text>
</g>
<!-- 49&#45;&gt;a4 -->
<g id="edge8" class="edge">
<title>49&#45;&gt;a4</title>
<path fill="none" stroke="#000000" d="M513.2022,-36.5449C504.3752,-45.4946 493.5669,-56.453 483.9307,-66.2231"/>
<polygon fill="#000000" stroke="#000000" points="481.3728,-63.8322 476.8425,-73.4096 486.3566,-68.7477 481.3728,-63.8322"/>
</g>
<!-- b1 -->
<g id="node13" class="node">
<title>b1</title>
<polygon fill="none" stroke="#000000" points="130,-146.5 130,-182.5 270,-182.5 270,-146.5 130,-146.5"/>
<text text-anchor="middle" x="147.5" y="-160.8" font-family="Times,serif" font-size="14.00" fill="#000000">03</text>
<polyline fill="none" stroke="#000000" points="165,-146.5 165,-182.5 "/>
<text text-anchor="middle" x="182.5" y="-160.8" font-family="Times,serif" font-size="14.00" fill="#000000">26</text>
<polyline fill="none" stroke="#000000" points="200,-146.5 200,-182.5 "/>
<text text-anchor="middle" x="217.5" y="-160.8" font-family="Times,serif" font-size="14.00" fill="#000000">41</text>
<polyline fill="none" stroke="#000000" points="235,-146.5 235,-182.5 "/>
<text text-anchor="middle" x="252.5" y="-160.8" font-family="Times,serif" font-size="14.00" fill="#000000">52</text>
</g>
<!-- a1&#45;&gt;b1 -->
<g id="edge9" class="edge">
<title>a1&#45;&gt;b1</title>
<path fill="none" stroke="#000000" d="M123.9663,-109.5449C136.8342,-118.8455 152.7038,-130.3156 166.6102,-140.3668"/>
<polygon fill="#000000" stroke="#000000" points="164.8159,-143.3884 174.9709,-146.4096 168.9164,-137.7151 164.8159,-143.3884"/>
</g>
<!-- a2&#45;&gt;b1 -->
<g id="edge10" class="edge">
<title>a2&#45;&gt;b1</title>
<path fill="none" stroke="#000000" d="M200,-109.5449C200,-117.6172 200,-127.3236 200,-136.3183"/>
<polygon fill="#000000" stroke="#000000" points="196.5001,-136.4096 200,-146.4096 203.5001,-136.4097 196.5001,-136.4096"/>
</g>
<!-- b2 -->
<g id="node14" class="node">
<title>b2</title>
<polygon fill="none" stroke="#000000" points="295,-146.5 295,-182.5 435,-182.5 435,-146.5 295,-146.5"/>
<text text-anchor="middle" x="312.5" y="-160.8" font-family="Times,serif" font-size="14.00" fill="#000000">09</text>
<polyline fill="none" stroke="#000000" points="330,-146.5 330,-182.5 "/>
<text text-anchor="middle" x="347.5" y="-160.8" font-family="Times,serif" font-size="14.00" fill="#000000">38</text>
<polyline fill="none" stroke="#000000" points="365,-146.5 365,-182.5 "/>
<text text-anchor="middle" x="382.5" y="-160.8" font-family="Times,serif" font-size="14.00" fill="#000000">49</text>
<polyline fill="none" stroke="#000000" points="400,-146.5 400,-182.5 "/>
<text text-anchor="middle" x="417.5" y="-160.8" font-family="Times,serif" font-size="14.00" fill="#000000">57</text>
</g>
<!-- a3&#45;&gt;b2 -->
<g id="edge11" class="edge">
<title>a3&#45;&gt;b2</title>
<path fill="none" stroke="#000000" d="M365,-109.5449C365,-117.6172 365,-127.3236 365,-136.3183"/>
<polygon fill="#000000" stroke="#000000" points="361.5001,-136.4096 365,-146.4096 368.5001,-136.4097 361.5001,-136.4096"/>
</g>
<!-- a4&#45;&gt;b2 -->
<g id="edge12" class="edge">
<title>a4&#45;&gt;b2</title>
<path fill="none" stroke="#000000" d="M435.764,-109.5449C423.9009,-118.7578 409.2967,-130.0994 396.4424,-140.082"/>
<polygon fill="#000000" stroke="#000000" points="394.0457,-137.5117 388.2944,-146.4096 398.3393,-143.0403 394.0457,-137.5117"/>
</g>
<!-- c1 -->
<g id="node15" class="node">
<title>c1</title>
<polygon fill="none" stroke="#000000" points="152,-219.5 152,-255.5 432,-255.5 432,-219.5 152,-219.5"/>
<text text-anchor="middle" x="169.5" y="-233.8" font-family="Times,serif" font-size="14.00" fill="#000000">03</text>
<polyline fill="none" stroke="#000000" points="187,-219.5 187,-255.5 "/>
<text text-anchor="middle" x="204.5" y="-233.8" font-family="Times,serif" font-size="14.00" fill="#000000">09</text>
<polyline fill="none" stroke="#000000" points="222,-219.5 222,-255.5 "/>
<text text-anchor="middle" x="239.5" y="-233.8" font-family="Times,serif" font-size="14.00" fill="#000000">26</text>
<polyline fill="none" stroke="#000000" points="257,-219.5 257,-255.5 "/>
<text text-anchor="middle" x="274.5" y="-233.8" font-family="Times,serif" font-size="14.00" fill="#000000">38</text>
<polyline fill="none" stroke="#000000" points="292,-219.5 292,-255.5 "/>
<text text-anchor="middle" x="309.5" y="-233.8" font-family="Times,serif" font-size="14.00" fill="#000000">41</text>
<polyline fill="none" stroke="#000000" points="327,-219.5 327,-255.5 "/>
<text text-anchor="middle" x="344.5" y="-233.8" font-family="Times,serif" font-size="14.00" fill="#000000">49</text>
<polyline fill="none" stroke="#000000" points="362,-219.5 362,-255.5 "/>
<text text-anchor="middle" x="379.5" y="-233.8" font-family="Times,serif" font-size="14.00" fill="#000000">52</text>
<polyline fill="none" stroke="#000000" points="397,-219.5 397,-255.5 "/>
<text text-anchor="middle" x="414.5" y="-233.8" font-family="Times,serif" font-size="14.00" fill="#000000">57</text>
</g>
<!-- b1&#45;&gt;c1 -->
<g id="edge13" class="edge">
<title>b1&#45;&gt;c1</title>
<path fill="none" stroke="#000000" d="M222.7416,-182.5449C234.3523,-191.7578 248.6458,-203.0994 261.2266,-213.082"/>
<polygon fill="#000000" stroke="#000000" points="259.1921,-215.9356 269.2012,-219.4096 263.5431,-210.4521 259.1921,-215.9356"/>
</g>
<!-- b2&#45;&gt;c1 -->
<g id="edge14" class="edge">
<title>b2&#45;&gt;c1</title>
<path fill="none" stroke="#000000" d="M346.9551,-182.5449C338.0054,-191.4946 327.047,-202.453 317.2769,-212.2231"/>
<polygon fill="#000000" stroke="#000000" points="314.6866,-209.8637 310.0904,-219.4096 319.6363,-214.8134 314.6866,-209.8637"/>
</g>
</g>
</svg>
